<svg width="634" height="351" viewBox="0 0 634 351" fill="none" xmlns="http://www.w3.org/2000/svg">
<path d="M574.595 188.415C535.406 150.242 467.877 152.334 421.496 178.372C360.972 212.35 287.493 204.307 223.172 178.029C178.2 159.657 125.847 154.66 85.4388 205.224C55.8554 242.243 39.9313 291.786 58.6217 334.694C59.7076 337.187 60.9946 339.592 62.4348 341.925H587.311C612.939 289.217 611.902 224.753 574.595 188.415Z" fill="#F6F5F5" fill-opacity="0.58"/>
<path d="M58.0534 334.917C45.8494 303.851 40.9006 275.65 43.3445 251.096C45.5021 229.418 53.3085 210.981 66.5472 196.297C79.1812 182.284 96.3816 172.289 116.289 167.39C134.607 162.882 154.214 163.044 171.496 167.844C197.561 175.084 214.904 191.557 219.077 213.041L217.879 213.274C213.797 192.261 196.772 176.131 171.17 169.02C154.086 164.275 134.699 164.117 116.58 168.575C96.9112 173.415 79.9234 183.284 67.4535 197.115C54.393 211.601 46.6902 229.803 44.5587 251.216C42.1343 275.576 47.0567 303.587 59.1892 334.47L58.0534 334.917Z" fill="#DADADA"/>
<path d="M599.489 324.902L598.275 324.774C600.175 306.805 599.487 289.423 596.231 273.108C593.16 257.718 587.802 243.231 580.305 230.048C566.166 205.188 544.827 185.502 518.593 173.121C505.755 167.062 492.112 162.944 478.043 160.883C463.815 158.797 449.459 158.863 435.376 161.077C405.392 165.791 377.952 180.079 356.022 202.397L355.151 201.541C377.266 179.035 404.942 164.626 435.187 159.871C449.391 157.638 463.87 157.572 478.22 159.675C492.408 161.754 506.167 165.907 519.113 172.017C545.576 184.507 567.103 204.365 581.366 229.445C588.928 242.741 594.332 257.351 597.428 272.869C600.708 289.305 601.401 306.811 599.489 324.902Z" fill="#DADADA"/>
<path d="M400.949 64.1541H392.559V55.765H388.996V64.1541H380.607V67.7178H388.996V76.1075H392.559V67.7178H400.949V64.1541Z" fill="#4D8395"/>
<path d="M298.295 79.9869H291.373V73.0653H288.433V79.9869H281.512V82.9272H288.433V89.8492H291.373V82.9272H298.295V79.9869Z" fill="#4D8395"/>
<path d="M325.44 6.0404H319.399V3.05176e-05H316.833V6.0404H310.793V8.60619H316.833V14.6468H319.399V8.60619H325.44V6.0404Z" fill="#4D8395"/>
<path d="M325.354 79.5076C334.932 69.9291 350.463 69.9286 360.041 79.5069C369.62 89.0855 369.62 104.616 360.041 114.195C350.463 123.773 334.932 123.773 325.354 114.194C315.776 104.616 315.776 89.0862 325.354 79.5076Z" stroke="#4D8395"/>
<path d="M345.556 109.268V113.106H340.678V109.441C337.219 109.234 333.865 108.299 331.789 107.02L334.417 101.07C336.701 102.419 339.743 103.284 342.407 103.284C344.725 103.284 345.556 102.799 345.556 101.968C345.556 98.9252 332.169 101.381 332.169 92.3528C332.169 88.4433 335.005 85.158 340.678 84.3623V80.5924H345.556V84.2934C348.113 84.5355 350.606 85.1933 352.578 86.3002L350.122 92.2148C347.733 91.0037 345.486 90.4165 343.376 90.4165C340.988 90.4165 340.227 91.108 340.227 91.9374C340.227 94.8439 353.614 92.4217 353.614 101.346C353.614 105.082 350.916 108.334 345.556 109.268Z" fill="white"/>
<path d="M289.342 42.6758C290.923 35.9818 297.631 31.836 304.325 33.4164C311.019 34.9971 315.164 41.7058 313.584 48.3999C312.003 55.0938 305.294 59.2387 298.6 57.658C291.907 56.0773 287.762 49.3696 289.342 42.6758Z" stroke="#4D8395"/>
<path d="M302.931 51.9441V53.9312H300.406V52.0338C298.615 51.9266 296.879 51.4428 295.805 50.7809L297.165 47.7011C298.347 48.3994 299.922 48.8471 301.301 48.8471C302.501 48.8471 302.931 48.5963 302.931 48.1663C302.931 46.5911 296.001 47.8624 296.001 43.1891C296.001 41.1656 297.469 39.4651 300.406 39.0531V37.1017H302.931V39.0174C304.254 39.1429 305.545 39.4832 306.565 40.0562L305.294 43.1177C304.058 42.4909 302.894 42.1867 301.802 42.1867C300.566 42.1867 300.172 42.5447 300.172 42.9738C300.172 44.4785 307.102 43.2246 307.102 47.8438C307.102 49.7776 305.705 51.4608 302.931 51.9441Z" fill="white"/>
<path d="M355.179 22.872C363.74 22.872 370.68 29.812 370.68 38.373C370.68 46.9339 363.74 53.8739 355.179 53.8739C346.618 53.8739 339.678 46.9339 339.678 38.373C339.678 29.812 346.618 22.872 355.179 22.872Z" stroke="#4D8395"/>
<path d="M357.004 46.3121V48.7664H353.885V46.4229C351.674 46.2906 349.529 45.6927 348.202 44.8753L349.882 41.0713C351.343 41.9337 353.287 42.4865 354.991 42.4865C356.473 42.4865 357.004 42.1768 357.004 41.6456C357.004 39.7001 348.445 41.2702 348.445 35.4981C348.445 32.9987 350.258 30.8983 353.885 30.3895V27.9793H357.004V30.3454C358.639 30.5003 360.232 30.9207 361.493 31.6284L359.923 35.4099C358.396 34.6356 356.959 34.26 355.61 34.26C354.083 34.26 353.597 34.7021 353.597 35.2324C353.597 37.0906 362.156 35.5422 362.156 41.2476C362.156 43.6364 360.431 45.7151 357.004 46.3121Z" fill="white"/>
<path d="M48.2981 340.056C46.3392 342.376 18.3219 270.089 30.8169 268.22C43.209 266.366 52.6803 334.868 48.2981 340.056Z" fill="#4D8395"/>
<path d="M49.4682 339.325C49.4682 339.325 26.895 282.709 17.6122 294.362C10.0376 303.872 40.8009 339.614 49.4682 339.325Z" fill="#4497B3"/>
<path d="M48.0295 339.57C48.0295 339.57 45.2651 284.99 52.7818 284.913C68.2094 284.756 55.2504 337.111 48.0295 339.57Z" fill="#4497B3"/>
<path d="M53.5661 338.301C53.5661 338.301 46.8204 337.813 44.5463 335.705C38.7622 330.341 25.8624 320.912 22.8414 326.489C18.6331 334.259 30.5556 348.852 53.5661 338.301Z" fill="#27667B"/>
<path d="M42.584 341.451C42.584 341.451 47.92 339.038 48.8222 337.122C52.1123 330.139 60.718 317.28 66.3791 318.93C75.3708 321.551 68.471 344.915 42.584 341.451Z" fill="#27667B"/>
<path d="M597.867 340.746C600.254 342.59 615.21 275.547 602.006 275.203C588.911 274.863 592.528 336.622 597.867 340.746Z" fill="#4D8395"/>
<path d="M597.671 341.757C597.671 341.757 608.323 287.593 619.736 296.916C629.048 304.524 606.672 341.105 597.671 341.757Z" fill="#4497B3"/>
<path d="M598.457 341.926C598.457 341.926 589.696 291.531 581.917 292.25C565.95 293.726 586.652 342.263 598.457 341.926Z" fill="#27667B"/>
<path d="M134.222 225.363H110.397V341.925H134.222V225.363Z" fill="#4D8395"/>
<path d="M216.518 225.363H134.222V341.925H216.518V225.363Z" fill="#27667B"/>
<path d="M134.766 225.363H133.678V341.925H134.766V225.363Z" fill="#4497B3"/>
<path d="M300.773 137.059H276.948V341.551H300.773V137.059Z" fill="#4D8395"/>
<path d="M383.072 137.054H300.776V341.548H383.072V137.054Z" fill="#27667B"/>
<path d="M301.317 137.059H300.229V341.551H301.317V137.059Z" fill="#4497B3"/>
<path d="M457.559 268.158H433.734V342.162H457.559V268.158Z" fill="#4D8395"/>
<path d="M539.855 268.158H457.559V342.162H539.855V268.158Z" fill="#27667B"/>
<path d="M455.895 315.761L459.55 341.925H427.037L442.043 329.613L441.851 316.53L455.895 315.761Z" fill="#3B404A"/>
<path d="M434.013 241.721C434.013 241.721 399.47 241.721 439.328 323.43H454.607L434.013 241.721Z" fill="#27667B"/>
<path d="M467.034 315.761L470.689 341.925H438.176L453.182 329.613L452.99 316.53L467.034 315.761Z" fill="#27667B"/>
<path d="M507.308 235.078C507.308 235.078 524.484 281.368 460.268 268.082L471.863 323.617L448.063 323.413C448.063 323.413 409.877 256.557 434.013 241.721L507.308 235.078Z" fill="#4497B3"/>
<path d="M451.887 316.521C447.063 316.521 443.943 316.448 443.881 316.446C443.628 316.44 443.429 316.23 443.435 315.978C443.441 315.725 443.655 315.531 443.904 315.531C444.028 315.534 456.56 315.829 470.42 315.226C470.674 315.211 470.886 315.411 470.897 315.664C470.908 315.917 470.712 316.13 470.46 316.141C463.457 316.445 456.791 316.521 451.887 316.521Z" fill="white"/>
<path d="M456.505 308.912C449.262 308.912 441.682 308.54 441.123 308.512C440.871 308.5 440.676 308.285 440.689 308.032C440.702 307.78 440.92 307.583 441.169 307.598C441.23 307.601 447.34 307.904 453.817 307.979C464.568 308.105 468.015 307.535 469.014 307.036C469.24 306.923 469.515 307.014 469.628 307.24C469.741 307.467 469.649 307.741 469.423 307.855C467.776 308.678 462.246 308.912 456.505 308.912Z" fill="white"/>
<path d="M458.437 334.856C458.327 334.856 458.217 334.817 458.129 334.737L452.874 329.951C452.687 329.781 452.673 329.491 452.844 329.304C453.014 329.117 453.304 329.104 453.49 329.274L458.745 334.06C458.932 334.23 458.946 334.52 458.776 334.707C458.686 334.806 458.561 334.856 458.437 334.856Z" fill="white"/>
<path d="M474.978 181.27C474.978 181.27 446.607 176.22 441.248 238.621L510.186 235.3C510.186 235.3 520.815 192.563 487.6 181.713L474.978 181.27Z" fill="#FBC343"/>
<path d="M465.467 239.768H433.36V244.935H465.467V239.768Z" fill="#E5ECFF"/>
<path d="M467.893 231.757C467.893 231.757 451.728 228.767 446.192 231.591C441.372 234.049 442.483 236.518 444.31 236.075L444.173 236.724C443.903 238.009 444.893 239.213 446.206 239.195C447.178 239.181 448.145 239.301 449.085 239.55C453.595 240.744 467.659 244.326 470.993 243.492L473.484 239.95L467.893 231.757Z" fill="#E28B6D"/>
<path d="M470.993 243.493C470.993 243.493 501.55 251.686 510.186 235.3L495.793 225.114C495.793 225.114 485.386 232.421 467.893 231.757L470.993 243.493Z" fill="#FBC343"/>
<path d="M452.968 244.935H415.892L404.931 208.232H442.007L452.968 244.935Z" fill="#3B404A"/>
<path d="M467.892 232.367C467.594 232.367 467.334 232.149 467.289 231.846C467.239 231.513 467.469 231.203 467.803 231.153C468.068 231.113 494.367 227.184 500.545 224.991C500.862 224.879 501.212 225.045 501.325 225.362C501.438 225.68 501.271 226.029 500.954 226.141C494.664 228.373 469.069 232.198 467.982 232.36C467.952 232.365 467.922 232.367 467.892 232.367Z" fill="#E49B31"/>
<path d="M455.182 230.55C454.867 230.55 454.6 230.309 454.574 229.989C454.569 229.926 454.054 223.498 454.175 215.27C454.288 207.659 454.982 196.899 457.654 188.859C457.761 188.539 458.106 188.366 458.426 188.473C458.746 188.579 458.919 188.924 458.813 189.244C453.784 204.372 455.77 229.637 455.791 229.89C455.818 230.226 455.568 230.521 455.232 230.548C455.215 230.549 455.198 230.55 455.182 230.55Z" fill="#E49B31"/>
<path d="M475.366 191.843C473.161 191.843 471.588 191.146 471.558 191.132C471.252 190.992 471.117 190.63 471.257 190.323C471.397 190.017 471.759 189.883 472.065 190.022C472.277 190.117 477.108 192.225 481.465 188.148C481.711 187.918 482.097 187.931 482.327 188.177C482.558 188.423 482.544 188.809 482.298 189.04C479.925 191.26 477.382 191.843 475.366 191.843Z" fill="#E49B31"/>
<path d="M494.444 227.601C494.418 227.601 494.391 227.599 494.364 227.595C494.03 227.552 493.794 227.245 493.838 226.911C495.621 213.242 488.487 199.952 488.415 199.82C488.254 199.524 488.363 199.154 488.659 198.992C488.955 198.83 489.325 198.94 489.487 199.235C489.561 199.371 496.884 212.998 495.048 227.069C495.008 227.377 494.746 227.601 494.444 227.601Z" fill="#E49B31"/>
<path d="M481.941 180.248C481.941 182.647 480.371 184.852 477.972 185.57C474.988 186.459 471.883 184.742 471.03 181.783C470.994 181.685 470.97 181.588 470.945 181.478L469.387 174.647L469.301 174.27L475.694 167.949L479.81 170.007L481.808 179.031C481.893 179.433 481.941 179.846 481.941 180.248Z" fill="#E28B6D"/>
<path d="M474.939 174.647C474.939 174.647 474.477 177.752 471.03 181.783C470.994 181.685 470.97 181.588 470.945 181.478L469.387 174.647H474.939Z" fill="#3B404A"/>
<path d="M459.029 158.968C459.029 158.968 457.964 186.52 474.936 174.647L478.97 167.188L472.729 156.99L459.029 158.968Z" fill="#E28B6D"/>
<path d="M459.302 159.708C459.302 159.708 460.954 162.808 471.609 161.894C471.609 161.894 472.678 172.922 479.274 175.053L484.348 174.038C486.682 150.901 477.346 145.015 465.981 149.886C453.499 145.015 448.322 158.351 459.251 164.386C459.217 162.643 459.128 161.448 459.302 159.708Z" fill="#3B404A"/>
<path d="M479.275 175.053C479.275 175.053 476.332 195.957 484.247 194.537C492.162 193.116 493.887 181.547 484.348 174.038L479.275 175.053Z" fill="#3B404A"/>
<path d="M482 175.952C484.351 175.275 486.108 174.207 485.924 173.568C485.74 172.928 483.684 172.959 481.333 173.637C478.981 174.314 477.224 175.382 477.409 176.021C477.593 176.66 479.648 176.629 482 175.952Z" fill="#FBC343"/>
<path d="M460.563 166.309C460.563 166.68 460.863 166.98 461.234 166.98C461.605 166.98 461.906 166.68 461.906 166.309C461.906 165.938 461.605 165.637 461.234 165.637C460.863 165.637 460.563 165.938 460.563 166.309Z" fill="#3B404A"/>
<path d="M465.454 166.345C465.879 166.345 466.223 166 466.223 165.575C466.223 165.151 465.879 164.806 465.454 164.806C465.029 164.806 464.685 165.151 464.685 165.575C464.685 166 465.029 166.345 465.454 166.345Z" fill="#3B404A"/>
<path d="M462.936 170.419C462.787 170.419 462.654 170.405 462.558 170.391C462.193 170.337 461.896 170.166 461.721 169.908C461.569 169.684 461.519 169.424 461.577 169.154C461.744 168.376 462.772 167.713 462.976 167.588C463.119 167.5 463.308 167.545 463.396 167.689C463.484 167.832 463.439 168.02 463.295 168.108C462.813 168.403 462.257 168.897 462.174 169.282C462.151 169.391 462.166 169.478 462.226 169.565C462.303 169.678 462.457 169.759 462.648 169.787C462.929 169.829 463.186 169.811 463.352 169.74C463.506 169.673 463.686 169.745 463.753 169.899C463.82 170.054 463.748 170.233 463.593 170.3C463.38 170.392 463.143 170.419 462.936 170.419Z" fill="#3B404A"/>
<path d="M463.846 172.986C463.529 172.986 463.191 172.935 462.836 172.811C462.677 172.755 462.593 172.581 462.648 172.422C462.704 172.263 462.877 172.178 463.037 172.235C464.764 172.836 465.975 171.348 466.026 171.284C466.13 171.153 466.322 171.131 466.454 171.235C466.586 171.34 466.609 171.531 466.504 171.663C466.492 171.679 465.438 172.986 463.846 172.986Z" fill="#3B404A"/>
<path d="M464.18 163.778C464.582 164.301 465.028 164.051 466.265 164.01C466.549 164 468.087 164.059 468.016 163.692C467.966 163.43 467.044 162.943 466.014 162.894C465.444 162.867 464.962 162.943 464.479 163.112C464.36 163.154 464.244 163.205 464.163 163.287C464.028 163.424 464.04 163.597 464.18 163.778Z" fill="#3B404A"/>
<path d="M462.279 163.87C462.127 164.418 461.701 164.309 460.721 164.569C460.497 164.629 459.313 165.048 459.254 164.713C459.212 164.476 459.78 163.833 460.57 163.544C461.007 163.384 461.407 163.334 461.838 163.365C461.944 163.373 462.05 163.389 462.139 163.441C462.288 163.527 462.332 163.68 462.279 163.87Z" fill="#3B404A"/>
<path opacity="0.4" d="M469.89 170.357C470.909 170.357 471.736 169.53 471.736 168.51C471.736 167.491 470.909 166.664 469.89 166.664C468.87 166.664 468.043 167.491 468.043 168.51C468.043 169.53 468.87 170.357 469.89 170.357Z" fill="#974C32"/>
<path d="M502.088 152.017L508.409 136.635C506.137 132.448 504.938 127.727 504.938 122.961C504.938 107.125 517.822 94.2406 533.658 94.2406C549.495 94.2406 562.379 107.125 562.379 122.961C562.379 138.798 549.495 151.682 533.658 151.682C527.622 151.682 521.841 149.809 516.917 146.262L502.088 152.017ZM517.099 144.882L517.369 145.081C522.141 148.601 527.773 150.462 533.658 150.462C548.822 150.462 561.158 138.125 561.158 122.962C561.158 107.798 548.822 95.4615 533.658 95.4615C518.495 95.4615 506.158 107.798 506.158 122.962C506.158 127.618 507.354 132.231 509.618 136.301L509.761 136.557L504.298 149.85L517.099 144.882Z" fill="#4D8395"/>
<path d="M520.697 117.947C520.697 113.976 523.119 111.453 526.553 111.453C529.983 111.453 532.372 113.942 532.372 117.947C532.372 121.951 529.983 124.442 526.553 124.442C523.119 124.442 520.697 121.918 520.697 117.947ZM529.008 117.947C529.008 115.423 528.032 114.212 526.553 114.212C525.103 114.212 524.095 115.457 524.095 117.947C524.095 120.437 525.103 121.682 526.553 121.682C528.032 121.682 529.008 120.471 529.008 117.947ZM540.584 111.721H544.587L528.504 135.277H524.498L540.584 111.721ZM536.712 129.052C536.712 125.082 539.137 122.557 542.535 122.557C545.968 122.557 548.39 125.082 548.39 129.052C548.39 133.022 545.968 135.547 542.535 135.547C539.137 135.547 536.712 133.022 536.712 129.052ZM544.993 129.052C544.993 126.561 544.015 125.316 542.535 125.316C541.088 125.316 540.08 126.528 540.08 129.052C540.08 131.575 541.088 132.786 542.535 132.786C544.015 132.786 544.993 131.542 544.993 129.052Z" fill="white"/>
<path d="M203.51 308.033L206.892 342.092L240.089 341.729L225.002 326.243L221.557 307.377L203.51 308.033Z" fill="#3B404A"/>
<path d="M231.249 334.684C228.497 334.684 226.516 333.927 225.35 332.429C223.384 329.902 224.517 326.258 224.566 326.104C224.643 325.863 224.901 325.73 225.141 325.808C225.382 325.884 225.515 326.142 225.438 326.383C225.428 326.416 224.404 329.728 226.075 331.87C227.183 333.291 229.244 333.919 232.204 333.739C232.455 333.723 232.673 333.915 232.689 334.167C232.704 334.42 232.512 334.637 232.26 334.652C231.912 334.673 231.575 334.684 231.249 334.684Z" fill="white"/>
<path d="M149.153 307.47L143.903 324.97L129.466 351L159.434 340.938L165.996 307.908L149.153 307.47Z" fill="#3B404A"/>
<path d="M137.639 337.297C137.42 337.297 137.226 337.14 137.188 336.917C137.146 336.667 137.313 336.431 137.562 336.388C141.976 335.632 144.618 334.139 145.415 331.95C146.544 328.852 143.584 325.301 143.554 325.265C143.39 325.072 143.415 324.783 143.607 324.62C143.801 324.457 144.089 324.481 144.253 324.674C144.389 324.835 147.584 328.672 146.275 332.264C145.357 334.783 142.477 336.474 137.717 337.291C137.691 337.295 137.665 337.297 137.639 337.297Z" fill="white"/>
<path d="M223.217 188.186L227.631 310.519C227.78 314.643 224.574 318.115 220.451 318.294L205.16 318.959C201.038 319.138 197.543 315.959 197.332 311.839L190.604 180.709L223.217 188.186Z" fill="#4497B3"/>
<path d="M209.318 181.338L208.207 185.207L206.071 192.604L170.676 315.329C169.858 318.149 167.197 320.029 164.268 319.846L145.325 318.662C141.407 318.417 138.685 314.658 139.649 310.862L167.343 202.575L170.981 188.331L198.565 183.303L209.318 181.338Z" fill="#4497B3"/>
<g opacity="0.8">
<path d="M214.508 187.845C214.584 188.791 222.074 282.895 217.775 317.818L218.684 317.931C222.994 282.915 215.497 188.718 215.42 187.77L214.508 187.845Z" fill="white"/>
<path d="M180.786 187.126C179.297 191.886 144.314 303.843 145.939 317.926L146.848 317.822C145.245 303.93 181.295 188.563 181.66 187.4L180.786 187.126Z" fill="white"/>
</g>
<path opacity="0.6" d="M223.22 188.185L206.072 192.603L167.343 202.575L170.981 188.332L198.565 183.303L208.207 185.207L223.22 188.185Z" fill="#27667B"/>
<path d="M191.242 244.282C191.19 244.282 191.136 244.275 191.082 244.26C190.757 244.172 190.565 243.837 190.653 243.511L197.424 218.584L207.061 211.744C207.336 211.549 207.717 211.614 207.912 211.889C208.107 212.164 208.042 212.545 207.767 212.74L198.487 219.326L191.831 243.831C191.757 244.103 191.511 244.282 191.242 244.282Z" fill="#27667B"/>
<path d="M195.278 123.246L210.7 153.928C215.8 149.952 221.221 146.927 224.599 145.204C213.517 123.295 195.278 123.246 195.278 123.246Z" fill="#FBC343"/>
<path d="M250.65 134.937C250.65 134.937 252.126 129.851 250.814 128.538C249.501 127.226 245.236 135.265 245.236 135.265L229.322 152.819C227.743 150.024 226.164 147.496 224.599 145.204C221.221 146.927 215.8 149.952 210.7 153.928L219.303 171.043C221.427 175.27 226.17 177.492 230.777 176.419C233.418 175.804 235.706 174.167 237.142 171.868L254.259 144.452C255.519 140.52 253.878 137.484 250.65 134.937Z" fill="#F9B384"/>
<path d="M171.225 174.1C170.444 177.054 170.041 178.848 170.041 178.848L170.431 188.588C170.431 188.588 153.862 188.899 148.98 182.873C145.697 178.819 146.077 172.141 151.726 159.835C153.193 156.639 154.174 154.412 155.553 151.984C160.057 152.301 166.22 153.045 172.555 154.693L163.881 172.371L171.225 174.1Z" fill="#F9B384"/>
<path d="M195.278 123.246C195.278 123.246 171.103 121.921 155.555 151.977C161.048 152.378 168.979 153.391 176.701 155.916C181.172 142.967 187.63 128.378 195.278 123.246Z" fill="#FBC343"/>
<path d="M223.22 188.185L170.432 188.588C170.078 182.778 170.834 172.525 171.823 162.688C171.884 162.126 171.933 161.577 171.994 161.016C172.433 156.744 172.909 152.594 173.349 149.005C173.483 147.846 173.617 146.747 173.739 145.722C174.386 140.62 174.85 137.239 174.85 137.239L195.282 123.252C204.888 126.291 218.704 144.342 218.704 144.342L223.22 188.185Z" fill="#FBC343"/>
<path d="M252.893 129.17L246.028 144.289L247.762 145.161L255.796 130.628L252.893 129.17Z" fill="#27667B"/>
<path d="M257.627 127.317L254.458 125.725C254.41 126.492 254.235 127.186 253.929 127.804L256.304 128.997C256.617 128.392 257.059 127.832 257.627 127.317Z" fill="#3B404A"/>
<path d="M253.929 127.804C253.677 128.313 253.338 128.772 252.894 129.17L255.796 130.628C255.864 130.05 256.039 129.508 256.304 128.997L253.929 127.804Z" fill="#27667B"/>
<path d="M263.985 127.579C269.485 125.657 272.385 119.64 270.463 114.14C268.541 108.64 262.524 105.74 257.024 107.662C251.524 109.584 248.624 115.601 250.546 121.101C252.468 126.601 258.485 129.501 263.985 127.579Z" fill="#27667B"/>
<path d="M266.701 123.068C269.695 119.643 269.345 114.439 265.92 111.446C262.495 108.452 257.292 108.801 254.298 112.226C251.304 115.651 251.654 120.855 255.079 123.849C258.504 126.842 263.708 126.493 266.701 123.068Z" fill="#E5ECFF"/>
<path d="M265.186 121.108C265.113 121.108 265.038 121.095 264.965 121.066C264.651 120.944 264.495 120.591 264.618 120.276C265.731 117.409 265.033 114.627 262.918 113.51C262.62 113.353 262.506 112.984 262.663 112.686C262.821 112.388 263.19 112.274 263.488 112.431C266.169 113.846 267.101 117.254 265.755 120.719C265.661 120.96 265.431 121.108 265.186 121.108Z" fill="white"/>
<path d="M254.773 137.904C253.586 138.813 252.17 139.267 251.548 138.59C250.947 137.938 252.073 136.08 252.451 135.545C252.986 134.788 255.323 132.609 256.301 133.832C257.291 135.07 256.196 136.814 254.773 137.904Z" fill="#E28B6D"/>
<path d="M255.73 140.938C254.543 141.848 253.127 142.302 252.505 141.625C251.904 140.973 253.03 139.115 253.408 138.58C253.943 137.823 256.28 135.644 257.258 136.867C258.248 138.105 257.153 139.849 255.73 140.938Z" fill="#E28B6D"/>
<path d="M256.012 144.122C254.952 144.935 253.687 145.34 253.131 144.736C252.594 144.153 253.6 142.493 253.938 142.015C254.416 141.338 256.503 139.392 257.377 140.485C258.261 141.591 257.283 143.149 256.012 144.122Z" fill="#E28B6D"/>
<path d="M165.381 188.441C165.381 188.441 178.662 189.777 178.902 188.365C179.141 186.952 176.002 186.24 176.002 186.24C176.002 186.24 182.562 186.524 182.361 185.328C182.16 184.132 179.326 183.31 179.326 183.31C179.326 183.31 183.927 183.437 183.448 182.111C182.969 180.784 179.102 179.816 179.102 179.816C179.102 179.816 185.216 178.704 182.888 177.527C180.56 176.349 167.863 173.438 167.863 173.438L165.381 188.441Z" fill="#F9B384"/>
<path d="M170.9 174.659C170.851 174.659 170.802 174.654 170.753 174.642L158.598 171.641C158.271 171.56 158.071 171.229 158.152 170.902C158.233 170.575 158.563 170.374 158.891 170.456L171.045 173.457C171.373 173.537 171.572 173.868 171.492 174.195C171.423 174.474 171.174 174.659 170.9 174.659Z" fill="#E28B6D"/>
<path d="M225.417 157.47C225.269 157.47 225.121 157.417 225.004 157.309C224.756 157.08 224.74 156.694 224.968 156.446L235.648 144.851C235.877 144.603 236.263 144.588 236.511 144.816C236.758 145.044 236.774 145.43 236.546 145.678L225.866 157.273C225.746 157.404 225.582 157.47 225.417 157.47Z" fill="#E28B6D"/>
<path d="M193.674 137.428C189.966 137.428 187.36 135.071 187.318 135.032C187.071 134.803 187.056 134.417 187.285 134.17C187.515 133.923 187.9 133.908 188.147 134.137C188.392 134.363 194.209 139.57 200.714 132.642C200.944 132.396 201.33 132.384 201.576 132.615C201.822 132.845 201.834 133.231 201.603 133.477C198.768 136.497 196.004 137.428 193.674 137.428Z" fill="#CCA03C"/>
<path d="M172.713 154.393C172.47 156.525 172.227 158.749 171.994 161.016C171.933 161.577 171.884 162.126 171.823 162.688C176.119 156.896 175.992 149.539 175.985 149.252C174.221 151.671 173.101 153.667 172.713 154.393Z" fill="#3B404A"/>
<path d="M200.974 109.633V124.992C200.974 128.637 198.034 131.577 194.404 131.577C190.759 131.577 187.819 128.637 187.819 124.992V109.633H200.974Z" fill="#F9B384"/>
<path d="M200.974 113.772V124.242C194.989 121.212 192.545 115.737 192.545 115.737L200.974 113.772Z" fill="#3B404A"/>
<path d="M204.822 99.5152C204.822 99.5152 210.165 124.265 192.541 115.733L186.447 107.39L190.478 95.2026L199.665 94.64L204.822 99.5152Z" fill="#F9B384"/>
<path d="M204.822 99.5152C204.822 99.5152 192.353 89.4842 187.853 107.015L183.916 106.265C183.916 106.265 180.587 92.8272 192.541 90.3276C202.853 88.1716 204.822 99.5152 204.822 99.5152Z" fill="#974C32"/>
<path d="M189.248 110.52C190.488 109.28 190.291 107.074 188.808 105.591C187.326 104.109 185.119 103.912 183.88 105.151C182.64 106.391 182.837 108.597 184.32 110.08C185.802 111.562 188.009 111.759 189.248 110.52Z" fill="#F9B384"/>
<path d="M187.962 109.106C187.851 109.106 187.744 109.045 187.69 108.94C187.68 108.92 186.692 107.031 185.133 107.197C184.963 107.213 184.815 107.094 184.797 106.926C184.779 106.759 184.901 106.608 185.068 106.59C187.047 106.381 188.186 108.569 188.233 108.662C188.31 108.812 188.25 108.996 188.1 109.072C188.056 109.095 188.008 109.106 187.962 109.106Z" fill="#3B404A"/>
<path d="M203.535 106.218C203.973 106.036 204.181 105.534 204 105.096C203.818 104.658 203.316 104.45 202.878 104.632C202.441 104.813 202.233 105.315 202.414 105.753C202.595 106.191 203.097 106.399 203.535 106.218Z" fill="#3B404A"/>
<path d="M197.783 106.359C198.257 106.359 198.641 105.975 198.641 105.501C198.641 105.027 198.257 104.643 197.783 104.643C197.309 104.643 196.925 105.027 196.925 105.501C196.925 105.975 197.309 106.359 197.783 106.359Z" fill="#3B404A"/>
<path d="M201.67 110.43C201.443 110.43 201.183 110.4 200.951 110.3C200.796 110.233 200.725 110.054 200.792 109.899C200.858 109.744 201.038 109.672 201.193 109.74C201.384 109.822 201.677 109.842 201.997 109.795C202.22 109.762 202.401 109.666 202.492 109.532C202.563 109.427 202.583 109.318 202.555 109.189C202.461 108.749 201.832 108.19 201.288 107.857C201.145 107.769 201.1 107.581 201.188 107.437C201.276 107.294 201.463 107.248 201.607 107.337C201.833 107.475 202.968 108.208 203.152 109.061C203.215 109.352 203.161 109.633 202.997 109.875C202.807 110.154 202.484 110.34 202.087 110.399C201.981 110.414 201.834 110.43 201.67 110.43Z" fill="#3B404A"/>
<path d="M200.144 112.995C198.386 112.995 197.221 111.55 197.207 111.532C197.102 111.4 197.125 111.208 197.257 111.104C197.389 110.999 197.581 111.022 197.685 111.154C197.744 111.227 199.109 112.903 201.058 112.225C201.217 112.168 201.391 112.253 201.447 112.412C201.502 112.571 201.418 112.746 201.259 112.801C200.867 112.938 200.494 112.995 200.144 112.995Z" fill="#3B404A"/>
<path d="M199.425 102.943C199.23 103.461 198.672 103.347 197.391 103.573C197.098 103.624 195.552 103.996 195.473 103.677C195.417 103.45 196.156 102.852 197.188 102.595C197.758 102.453 198.281 102.414 198.845 102.453C198.984 102.463 199.122 102.481 199.239 102.532C199.434 102.617 199.493 102.763 199.425 102.943Z" fill="#3B404A"/>
<path d="M201.809 102.91C201.974 103.427 202.479 103.314 203.627 103.539C203.89 103.59 205.275 103.961 205.352 103.641C205.407 103.415 204.753 102.818 203.829 102.561C203.318 102.42 202.848 102.382 202.34 102.421C202.215 102.43 202.09 102.449 201.983 102.5C201.806 102.585 201.751 102.731 201.809 102.91Z" fill="#3B404A"/>
<path opacity="0.4" d="M195.41 108.53C195.671 107.423 194.986 106.314 193.878 106.052C192.771 105.791 191.662 106.476 191.401 107.584C191.139 108.691 191.825 109.8 192.932 110.061C194.039 110.323 195.148 109.637 195.41 108.53Z" fill="#974C32"/>
<path d="M134.851 136.18L119.19 130.103C113.972 133.867 107.844 135.854 101.446 135.854C84.6766 135.854 71.0336 122.211 71.0336 105.441C71.0336 88.6718 84.6766 75.0287 101.446 75.0287C118.216 75.0287 131.859 88.6718 131.859 105.441C131.859 110.493 130.586 115.498 128.175 119.936L134.851 136.18ZM101.446 76.2491C85.3497 76.2491 72.2539 89.3447 72.2539 105.441C72.2539 121.538 85.3495 134.634 101.446 134.634C107.693 134.634 113.673 132.659 118.737 128.922L119.007 128.723L132.641 134.014L126.823 119.858L126.966 119.601C129.369 115.281 130.639 110.384 130.639 105.441C130.639 89.3447 117.543 76.2491 101.446 76.2491Z" fill="#4D8395"/>
<path d="M97.5005 116.413C97.5005 114.321 99.1415 112.76 101.441 112.76C103.738 112.76 105.381 114.321 105.381 116.413C105.381 118.465 103.739 120.149 101.441 120.149C99.1415 120.149 97.5005 118.465 97.5005 116.413Z" fill="#F4F4F4"/>
<path d="M97.6224 91.0881H105.258L103.984 109.846H98.896L97.6224 91.0881Z" fill="#F4F4F4"/>
<path d="M454.802 75.5416C446.339 71.92 436.186 74.3381 430.35 81.991C423.457 91.0297 425.196 103.945 434.235 110.838C441.096 116.071 450.188 116.325 457.187 112.193L446.716 94.4722L454.802 75.5416Z" fill="#4D8395"/>
<path d="M454.548 96.9134L465.018 114.634C467.24 113.322 469.253 111.573 470.914 109.395C475.824 102.956 476.35 94.5516 472.982 87.7566L454.548 96.9134Z" fill="#27667B"/>
<path d="M472.27 82.6709C470.91 79.9269 468.917 77.4444 466.317 75.4615C464.931 74.4046 463.454 73.5528 461.921 72.8971L453.836 91.8277L472.27 82.6709Z" fill="#E5ECFF"/>
<path d="M236.291 63.8253H182.874V35.9736H184.095V62.605H236.291V63.8253Z" fill="#4D8395"/>
<path d="M188.717 59.3988L187.681 58.7541L192.604 50.8419L195.986 56.376L203.096 41.208L210.364 54.9358L230.055 36.1608L230.897 37.0438L210.04 56.9309L203.163 43.9409L196.128 58.9479L192.595 53.1667L188.717 59.3988Z" fill="#4D8395"/>
<path d="M633.464 341.315H0V342.535H633.464V341.315Z" fill="#3B404A"/>
</svg>
